<?xml version="1.0" encoding="UTF-8"?>
<!DOCTYPE svg PUBLIC "-//W3C//DTD SVG 1.1//EN" "http://www.w3.org/Graphics/SVG/1.1/DTD/svg11.dtd">
<!-- Creator: CorelDRAW -->
<svg xmlns="http://www.w3.org/2000/svg" xml:space="preserve" width="282.222mm" height="282.222mm" version="1.1" style="shape-rendering:geometricPrecision; text-rendering:geometricPrecision; image-rendering:optimizeQuality; fill-rule:evenodd; clip-rule:evenodd"
viewBox="0 0 28222.22 28222.22"
 xmlns:xlink="http://www.w3.org/1999/xlink"
 xmlns:xodm="http://www.corel.com/coreldraw/odm/2003">
 <defs>
  <style type="text/css">
   <![CDATA[
    .str0 {stroke:black;stroke-width:282.22;stroke-linecap:round;stroke-linejoin:round;stroke-miterlimit:10}
    .fil1 {fill:none;fill-rule:nonzero}
    .fil2 {fill:#363638;fill-rule:nonzero}
    .fil0 {fill:white;fill-rule:nonzero}
   ]]>
  </style>
 </defs>
 <g id="BACKGROUND">
  <metadata id="CorelCorpID_0Corel-Layer"/>
  <polygon class="fil0" points="28222.22,28222.22 -0,28222.22 -0,0 28222.22,0 "/>
 </g>
 <g id="OBJECTS">
  <metadata id="CorelCorpID_1Corel-Layer"/>
  <g id="_2495381934224">
   <path class="fil1 str0" d="M16087.03 11709.26c0,1195.83 -969.41,2165.28 -2165.31,2165.28 -1195.79,0 -2165.21,-969.45 -2165.21,-2165.28 0,-1195.86 969.42,-2165.27 2165.21,-2165.27 1195.9,0 2165.31,969.41 2165.31,2165.27z"/>
   <g>
    <g>
     <polyline class="fil1 str0" points="13906.94,12857.13 12830.35,11780.47 13926.3,10684.45 "/>
    </g>
    <line class="fil1 str0" x1="12830.35" y1="11780.47" x2="15044.86" y2= "11780.47" />
   </g>
  </g>
  <g id="_2531556053504">
   <g>
    <g>
     <g>
      <path class="fil2" d="M-30880.17 29756.71l0 -9.09c-12.3,14.05 -24.39,25.56 -36.35,34.31 -11.95,8.89 -24.9,15.57 -38.89,20.12 -13.95,4.69 -29.18,6.89 -45.72,6.89 -21.91,0 -42.17,-4.61 -60.84,-13.85 -18.64,-9.3 -34.76,-22.53 -48.37,-39.75 -13.67,-17.16 -23.98,-37.35 -31,-60.64 -7.03,-23.22 -10.58,-48.37 -10.58,-75.37 0,-57.19 13.98,-101.77 41.89,-133.75 27.94,-31.89 64.67,-47.88 110.25,-47.88 26.35,0 48.57,4.55 66.66,13.57 18.12,9.03 35.76,23.01 52.95,41.69l0 -134.98c0,-18.81 3.72,-32.93 11.23,-42.58 7.48,-9.58 18.12,-14.4 32.01,-14.4 13.85,0 24.49,4.41 31.96,13.23 7.51,8.89 11.24,21.84 11.24,39.06l0 403.42c0,17.44 -4,30.46 -12.06,39.21 -8.03,8.68 -18.4,13.02 -31.14,13.02 -12.51,0 -22.85,-4.48 -31.01,-13.5 -8.17,-9.1 -12.23,-21.98 -12.23,-38.73zm-179.94 -134.35l0 0c0,24.8 3.86,45.89 11.58,63.32 7.71,17.43 18.26,30.52 31.66,39.34 13.4,8.82 28.04,13.3 43.89,13.3 16.09,0 30.76,-4.2 44.06,-12.61 13.3,-8.34 23.91,-21.22 31.83,-38.52 7.93,-17.29 11.89,-39 11.89,-64.83 0,-24.4 -3.96,-45.34 -11.89,-62.91 -7.92,-17.5 -18.63,-30.87 -32.17,-40.17 -13.51,-9.23 -28.32,-13.85 -44.38,-13.85 -16.74,0 -31.73,4.75 -44.92,14.19 -13.16,9.51 -23.39,23.09 -30.63,40.86 -7.3,17.78 -10.92,38.38 -10.92,61.88z"/>
      <path class="fil2" d="M-30476.82 29645.51l-178.9 0c0.24,20.73 4.41,39.07 12.57,54.91 8.13,15.85 18.98,27.84 32.49,35.83 13.54,8.06 28.46,12.06 44.75,12.06 10.92,0 20.91,-1.24 29.97,-3.79 9.06,-2.62 17.81,-6.62 26.32,-12.13 8.51,-5.44 16.3,-11.3 23.46,-17.57 7.14,-6.27 16.37,-14.81 27.81,-25.49 4.68,-4 11.4,-6.06 20.11,-6.06 9.38,0 16.95,2.61 22.74,7.78 5.82,5.17 8.75,12.34 8.75,21.78 0,8.26 -3.27,17.84 -9.71,28.93 -6.51,11.1 -16.3,21.71 -29.32,31.84 -13.13,10.19 -29.49,18.6 -49.3,25.28 -19.74,6.75 -42.48,10.06 -68.18,10.06 -58.7,0 -104.42,-16.74 -137.01,-50.23 -32.62,-33.48 -48.92,-78.96 -48.92,-136.35 0,-27.08 4,-52.16 12.06,-75.24 8.06,-23.16 19.77,-42.93 35.17,-59.47 15.4,-16.53 34.39,-29.21 56.99,-38.03 22.53,-8.82 47.57,-13.23 75.03,-13.23 35.72,0 66.39,7.51 91.95,22.6 25.6,15.09 44.78,34.59 57.5,58.43 12.67,23.91 19.08,48.3 19.08,73.03 0,23.09 -6.58,37.97 -19.74,44.79 -13.16,6.82 -31.73,10.27 -55.67,10.27zm-178.9 -51.95l0 0 165.88 0c-2.21,-31.29 -10.72,-54.71 -25.32,-70.21 -14.65,-15.58 -33.87,-23.3 -57.78,-23.3 -22.8,0 -41.51,7.86 -56.12,23.57 -14.64,15.78 -23.5,39.07 -26.66,69.94z"/>
      <path class="fil2" d="M-30060 29689.33c0,25.22 -6.13,46.85 -18.43,64.83 -12.26,17.99 -30.42,31.63 -54.47,40.93 -23.97,9.24 -53.19,13.85 -87.61,13.85 -32.83,0 -60.97,-5.03 -84.43,-15.09 -23.43,-9.99 -40.76,-22.6 -51.92,-37.62 -11.16,-15.16 -16.74,-30.25 -16.74,-45.47 0,-10.06 3.54,-18.61 10.71,-25.77 7.13,-7.1 16.19,-10.68 27.15,-10.68 9.57,0 16.95,2.34 22.08,7.03 5.17,4.68 10.09,11.3 14.75,19.7 9.37,16.4 20.63,28.46 33.69,36.59 13.05,7.99 30.86,12.06 53.47,12.06 18.29,0 33.31,-4.14 45.06,-12.27 11.71,-8.2 17.57,-17.5 17.57,-27.97 0,-16.13 -6.06,-27.77 -18.26,-35.14 -12.2,-7.37 -32.25,-14.47 -60.15,-21.16 -31.49,-7.78 -57.12,-16.05 -76.9,-24.66 -19.77,-8.55 -35.59,-19.91 -47.4,-33.97 -11.85,-14.06 -17.78,-31.42 -17.78,-51.95 0,-18.26 5.48,-35.63 16.44,-51.96 10.95,-16.26 27.07,-29.28 48.43,-38.99 21.29,-9.72 47.03,-14.61 77.21,-14.61 23.67,0 44.96,2.48 63.8,7.44 18.91,4.83 34.69,11.51 47.27,19.78 12.64,8.2 22.22,17.36 28.8,27.42 6.58,10.06 9.89,19.84 9.89,29.49 0,10.47 -3.52,19.09 -10.55,25.84 -7.02,6.61 -17.01,10.06 -30,10.06 -9.37,0 -17.37,-2.69 -23.95,-8.13 -6.58,-5.31 -14.12,-13.37 -22.59,-24.05 -6.93,-8.96 -15.06,-16.12 -24.47,-21.5 -9.37,-5.37 -22.12,-7.99 -38.2,-7.99 -16.54,0 -30.25,3.44 -41.21,10.54 -10.95,7.03 -16.43,15.78 -16.43,26.25 0,9.65 4.03,17.51 12.06,23.64 8.06,6.2 18.88,11.3 32.52,15.29 13.64,4 32.35,8.89 56.29,14.68 28.36,6.96 51.51,15.23 69.53,24.8 17.95,9.58 31.59,20.95 40.89,34.04 9.27,13.09 13.88,27.97 13.88,44.72z"/>
      <path class="fil2" d="M-29966.57 29394.5c-12.71,0 -23.6,-3.93 -32.66,-11.72 -9.02,-7.78 -13.57,-18.88 -13.57,-33.21 0,-12.95 4.65,-23.56 13.92,-31.97 9.26,-8.41 20.05,-12.61 32.31,-12.61 11.85,0 22.36,3.79 31.49,11.44 9.17,7.58 13.78,18.61 13.78,33.14 0,14.13 -4.51,25.08 -13.43,33.01 -8.93,7.92 -19.54,11.92 -31.84,11.92zm45.27 94.46l0 0 0 264.38c0,18.33 -4.37,32.18 -13.09,41.55 -8.72,9.37 -19.74,14.05 -33.18,14.05 -13.4,0 -24.28,-4.75 -32.66,-14.4 -8.4,-9.57 -12.57,-23.35 -12.57,-41.2l0 -261.69c0,-18.05 4.17,-31.7 12.57,-40.86 8.38,-9.16 19.26,-13.78 32.66,-13.78 13.44,0 24.46,4.62 33.18,13.78 8.72,9.16 13.09,21.91 13.09,38.17z"/>
      <path class="fil2" d="M-29520.6 29504.05l0 265.69c0,30.38 -3.27,56.57 -9.75,78.47 -6.44,21.85 -16.85,39.97 -31.14,54.23 -14.3,14.27 -33.01,24.95 -56.12,31.83 -23.12,6.97 -51.89,10.41 -86.3,10.41 -31.49,0 -59.64,-4.41 -84.44,-13.23 -24.77,-8.89 -43.86,-20.26 -57.29,-34.17 -13.37,-13.99 -20.12,-28.33 -20.12,-43.07 0,-11.16 3.82,-20.33 11.43,-27.29 7.58,-7.09 16.75,-10.61 27.46,-10.61 13.4,0 25.12,5.93 35.18,17.78 4.89,6 9.99,12.13 15.22,18.26 5.27,6.2 11.1,11.44 17.44,15.78 6.37,4.34 14.02,7.58 22.94,9.71 8.96,2.07 19.26,3.17 30.83,3.17 23.71,0 42.07,-3.3 55.16,-9.92 13.06,-6.55 22.22,-15.78 27.46,-27.63 5.27,-11.78 8.33,-24.46 9.23,-38.03 0.9,-13.51 1.55,-35.21 2,-65.18 -14.09,19.7 -30.32,34.65 -48.79,44.92 -18.39,10.27 -40.37,15.43 -65.8,15.43 -30.62,0 -57.36,-7.85 -80.27,-23.49 -22.87,-15.64 -40.48,-37.48 -52.74,-65.66 -12.3,-28.18 -18.43,-60.64 -18.43,-97.5 0,-27.42 3.72,-52.3 11.19,-74.35 7.52,-22.18 18.19,-40.79 32.01,-56.01 13.85,-15.16 29.83,-26.6 47.92,-34.31 18.09,-7.72 37.97,-11.58 59.64,-11.58 25.9,0 48.36,5.03 67.35,14.88 18.98,9.99 36.65,25.56 52.95,46.79l0 -12.41c0,-15.84 3.89,-28.11 11.71,-36.86 7.82,-8.68 17.88,-13.09 30.18,-13.09 17.64,0 29.35,5.79 35.14,17.29 5.82,11.51 8.75,28.12 8.75,49.75zm-265.03 115.96l0 0c0,37.07 8.06,65.12 24.25,84.06 16.19,19.02 37.18,28.53 62.84,28.53 15.2,0 29.53,-4.14 43.03,-12.27 13.54,-8.13 24.53,-20.46 33.04,-36.86 8.47,-16.4 12.75,-36.31 12.75,-59.81 0,-37.27 -8.2,-66.35 -24.64,-87.09 -16.43,-20.74 -38.03,-31.14 -64.87,-31.14 -26.14,0 -47.06,9.92 -62.8,29.84 -15.75,19.84 -23.6,48.09 -23.6,84.74z"/>
      <path class="fil2" d="M-29375.22 29487.65l0 11.03c16.06,-21.22 33.66,-36.8 52.75,-46.72 19.12,-9.92 41.03,-14.95 65.83,-14.95 24.15,0 45.69,5.31 64.7,15.78 18.95,10.54 33.18,25.35 42.51,44.51 6.07,11.23 9.96,23.29 11.75,36.24 1.79,12.95 2.73,29.49 2.73,49.61l0 170.19c0,18.33 -4.21,32.18 -12.61,41.55 -8.37,9.37 -19.26,14.05 -32.66,14.05 -13.65,0 -24.67,-4.75 -33.18,-14.4 -8.51,-9.57 -12.71,-23.35 -12.71,-41.2l0 -152.48c0,-30.11 -4.2,-53.19 -12.58,-69.18 -8.4,-15.92 -25.08,-23.98 -50.12,-23.98 -16.26,0 -31.15,4.9 -44.55,14.61 -13.4,9.72 -23.22,23.08 -29.49,40.03 -4.44,13.64 -6.68,39.07 -6.68,76.41l0 114.59c0,18.53 -4.34,32.45 -12.89,41.75 -8.61,9.24 -19.7,13.85 -33.35,13.85 -13.19,0 -24.01,-4.75 -32.52,-14.4 -8.47,-9.57 -12.71,-23.35 -12.71,-41.2l0 -264.38c0,-17.43 3.79,-30.45 11.37,-39.07 7.61,-8.54 17.98,-12.88 31.14,-12.88 8.07,0 15.34,1.93 21.84,5.72 6.45,3.86 11.65,9.51 15.58,17.09 3.89,7.57 5.85,16.88 5.85,27.83z"/>
      <path class="fil2" d="M-28818.73 29645.51l-178.9 0c0.24,20.73 4.37,39.07 12.57,54.91 8.13,15.85 18.95,27.84 32.49,35.83 13.47,8.06 28.42,12.06 44.72,12.06 10.95,0 20.94,-1.24 30,-3.79 9.03,-2.62 17.78,-6.62 26.32,-12.13 8.44,-5.44 16.26,-11.3 23.46,-17.57 7.1,-6.27 16.37,-14.81 27.77,-25.49 4.69,-4 11.41,-6.06 20.12,-6.06 9.37,0 16.99,2.61 22.77,7.78 5.83,5.17 8.72,12.34 8.72,21.78 0,8.26 -3.24,17.84 -9.72,28.93 -6.51,11.1 -16.26,21.71 -29.35,31.84 -13.05,10.19 -29.46,18.6 -49.23,25.28 -19.77,6.75 -42.51,10.06 -68.18,10.06 -58.74,0 -104.42,-16.74 -137.08,-50.23 -32.55,-33.48 -48.88,-78.96 -48.88,-136.35 0,-27.08 4.03,-52.16 12.06,-75.24 8.02,-23.16 19.77,-42.93 35.2,-59.47 15.4,-16.53 34.38,-29.21 56.95,-38.03 22.53,-8.82 47.58,-13.23 75.07,-13.23 35.72,0 66.35,7.51 91.92,22.6 25.59,15.09 44.74,34.59 57.49,58.43 12.71,23.91 19.12,48.3 19.12,73.03 0,23.09 -6.58,37.97 -19.77,44.79 -13.16,6.82 -31.73,10.27 -55.64,10.27zm-178.9 -51.95l0 0 165.84 0c-2.23,-31.29 -10.68,-54.71 -25.29,-70.21 -14.64,-15.58 -33.89,-23.3 -57.8,-23.3 -22.81,0 -41.52,7.86 -56.16,23.57 -14.64,15.78 -23.46,39.07 -26.59,69.94z"/>
      <path class="fil2" d="M-28445.87 29756.71l0 -9.09c-12.26,14.05 -24.39,25.56 -36.34,34.31 -11.96,8.89 -24.88,15.57 -38.86,20.12 -13.92,4.69 -29.18,6.89 -45.72,6.89 -21.91,0 -42.17,-4.61 -60.81,-13.85 -18.67,-9.3 -34.79,-22.53 -48.43,-39.75 -13.65,-17.16 -23.95,-37.35 -30.97,-60.64 -7.07,-23.22 -10.58,-48.37 -10.58,-75.37 0,-57.19 13.95,-101.77 41.89,-133.75 27.91,-31.89 64.67,-47.88 110.24,-47.88 26.36,0 48.58,4.55 66.67,13.57 18.08,9.03 35.76,23.01 52.91,41.69l0 -134.98c0,-18.81 3.76,-32.93 11.27,-42.58 7.44,-9.58 18.15,-14.4 32,-14.4 13.82,0 24.5,4.41 31.97,13.23 7.48,8.89 11.24,21.84 11.24,39.06l0 403.42c0,17.44 -4,30.46 -12.06,39.21 -8.03,8.68 -18.4,13.02 -31.15,13.02 -12.5,0 -22.84,-4.48 -31,-13.5 -8.17,-9.1 -12.27,-21.98 -12.27,-38.73zm-179.9 -134.35l0 0c0,24.8 3.82,45.89 11.54,63.32 7.72,17.43 18.26,30.52 31.7,39.34 13.4,8.82 28,13.3 43.85,13.3 16.13,0 30.8,-4.2 44.07,-12.61 13.29,-8.34 23.94,-21.22 31.83,-38.52 7.96,-17.29 11.92,-39 11.92,-64.83 0,-24.4 -3.96,-45.34 -11.92,-62.91 -7.89,-17.5 -18.64,-30.87 -32.14,-40.17 -13.54,-9.23 -28.33,-13.85 -44.41,-13.85 -16.74,0 -31.73,4.75 -44.89,14.19 -13.16,9.51 -23.4,23.09 -30.66,40.86 -7.27,17.78 -10.89,38.38 -10.89,61.88z"/>
      <path class="fil2" d="M-28071.97 29353.29l0 139.67c17.19,-17.85 34.73,-31.56 52.6,-41 17.85,-9.51 40,-14.26 66.36,-14.26 30.38,0 56.98,7.23 79.92,21.57 22.85,14.46 40.62,35.34 53.27,62.7 12.6,27.35 18.94,59.8 18.94,97.36 0,27.69 -3.55,53.05 -10.57,76.2 -7.03,23.15 -17.26,43.2 -30.66,60.15 -13.4,16.95 -29.67,30.11 -48.75,39.41 -19.12,9.24 -40.17,13.85 -63.15,13.85 -14.09,0 -27.35,-1.65 -39.72,-5.03 -12.41,-3.31 -22.98,-7.72 -31.66,-13.23 -8.69,-5.44 -16.13,-11.09 -22.29,-16.88 -6.13,-5.79 -14.27,-14.53 -24.29,-26.18l0 9.09c0,17.16 -4.14,30.18 -12.4,39.07 -8.24,8.82 -18.75,13.16 -31.49,13.16 -12.96,0 -23.29,-4.34 -31.01,-13.16 -7.72,-8.89 -11.54,-21.91 -11.54,-39.07l0 -399.42c0,-18.54 3.72,-32.59 11.2,-42.03 7.47,-9.51 17.95,-14.26 31.35,-14.26 14.09,0 24.91,4.54 32.49,13.57 7.57,9.1 11.4,21.91 11.4,38.72zm4.34 271.75l0 0c0,36.38 8.34,64.36 24.98,83.86 16.64,19.56 38.48,29.42 65.49,29.42 23.01,0 42.86,-9.99 59.46,-30.05 16.64,-19.98 24.98,-48.64 24.98,-85.91 0,-24.12 -3.45,-44.93 -10.37,-62.36 -6.96,-17.43 -16.75,-30.87 -29.49,-40.38 -12.75,-9.44 -27.6,-14.19 -44.58,-14.19 -17.4,0 -32.97,4.75 -46.58,14.19 -13.61,9.51 -24.32,23.22 -32.18,41.21 -7.78,17.98 -11.71,39.41 -11.71,64.21z"/>
      <path class="fil2" d="M-27682.3 29820.38l8.37 -20.46 -112.58 -283.47c-6.93,-16.26 -10.4,-28.18 -10.4,-35.55 0,-7.79 2.03,-15.02 6.02,-21.7 4.04,-6.76 9.55,-12.13 16.57,-16.13 7.07,-4.06 14.37,-6.06 21.99,-6.06 13.15,0 23.08,4.2 29.83,12.61 6.72,8.33 12.61,20.33 17.74,35.96l77.41 225.18 73.38 -209.4c5.79,-16.95 11.06,-30.24 15.75,-39.89 4.68,-9.58 9.64,-16.05 14.88,-19.36 5.24,-3.38 12.68,-5.1 22.32,-5.1 6.97,0 13.58,1.86 19.92,5.58 6.37,3.65 11.3,8.61 14.74,14.88 3.45,6.27 5.24,12.82 5.24,19.78 -0.97,4.2 -2.34,10.26 -4.41,18.12 -2,7.79 -4.44,15.78 -7.34,23.77l-119.3 312.26c-10.3,27.5 -20.33,49 -30.18,64.63 -9.82,15.65 -22.81,27.7 -39.03,36.04 -16.2,8.41 -38.04,12.61 -65.49,12.61 -26.81,0 -46.93,-2.89 -60.29,-8.68 -13.44,-5.86 -20.12,-16.47 -20.12,-31.91 0,-10.47 3.17,-18.6 9.57,-24.25 6.34,-5.72 15.78,-8.61 28.25,-8.61 4.93,0 9.75,0.69 14.44,2.07 5.82,1.31 10.81,1.99 15.05,1.99 10.51,0 18.78,-1.51 24.84,-4.68 6,-3.1 11.41,-8.55 16.23,-16.26 4.79,-7.65 10.33,-19.02 16.6,-33.97z"/>
     </g>
     <g>
      <path class="fil2" d="M-26357.19 29444.93l21.85 0 0 -27.42c0,-28.73 3.51,-51.4 10.81,-68.35 7.17,-16.88 19.57,-29.15 36.94,-36.86 17.29,-7.65 40.99,-11.51 71.1,-11.51 53.61,0 80.2,12.96 80.2,39.27 0,8.41 -2.82,15.72 -8.47,21.71 -5.44,5.99 -12.13,9.02 -19.71,9.02 -3.51,0 -9.78,-0.61 -18.6,-2.06 -8.34,-1.17 -15.92,-2 -21.98,-2 -16.47,0 -27.01,4.96 -31.9,14.68 -4.48,9.71 -6.89,23.56 -6.89,41.75l0 21.77 22.32 0c34.94,0 52.23,10.48 52.23,31.63 0,14.75 -4.48,24.32 -13.85,28.39 -9.23,3.99 -21.98,5.99 -38.38,5.99l-22.32 0 0 242.4c0,18.05 -4.27,31.76 -13.02,41.2 -8.55,9.65 -19.57,14.33 -33.28,14.33 -12.96,0 -23.64,-4.68 -32.39,-14.33 -8.61,-9.44 -12.81,-23.15 -12.81,-41.2l0 -242.4 -25.22 0c-13.71,0 -24.05,-2.96 -31.49,-9.23 -7.37,-5.99 -11.09,-14.06 -11.09,-23.91 0,-21.98 15.29,-32.87 45.95,-32.87z"/>
      <path class="fil2" d="M-26057.67 29676.86l0 76.48c0,18.46 -4.69,32.45 -13.23,41.62 -8.68,9.37 -19.7,13.91 -33.07,13.91 -13.44,0 -24.25,-4.61 -32.66,-14.12 -8.34,-9.31 -12.74,-23.15 -12.74,-41.41l0 -254.8c0,-41.14 14.81,-61.67 44.51,-61.67 15.29,0 26.18,4.76 32.93,14.4 6.68,9.65 10.4,23.77 11.16,42.58 10.89,-18.81 22.05,-32.93 33.49,-42.58 11.71,-9.64 26.87,-14.4 46.16,-14.4 19.36,0 37.83,4.76 55.95,14.4 18.19,9.65 27.22,22.46 27.22,38.24 0,11.1 -3.93,20.47 -11.51,27.56 -7.79,7.38 -16.05,11.03 -24.94,11.03 -3.52,0 -11.65,-2.21 -24.39,-6.34 -12.89,-4 -24.33,-6.13 -33.97,-6.13 -13.44,0 -24.46,3.65 -32.87,10.54 -8.54,7.23 -15.23,17.5 -19.91,31.28 -4.55,13.92 -7.72,30.52 -9.65,49.54 -1.72,19.09 -2.48,42.45 -2.48,69.87z"/>
      <path class="fil2" d="M-25637.16 29645.37l-179.01 0c0.35,20.74 4.41,39.21 12.54,54.98 8.27,15.78 19.02,27.77 32.6,35.9 13.57,7.99 28.38,11.99 44.78,11.99 10.95,0 20.88,-1.17 29.97,-3.93 8.96,-2.48 17.78,-6.54 26.25,-12.06 8.55,-5.37 16.27,-11.23 23.43,-17.64 7.17,-6.13 16.47,-14.67 27.91,-25.35 4.75,-4 11.43,-6.13 20.05,-6.13 9.44,0 16.94,2.62 22.87,7.85 5.86,5.17 8.62,12.33 8.62,21.78 0,8.26 -3.18,17.91 -9.44,28.87 -6.62,11.23 -16.33,21.77 -29.5,31.97 -13.23,10.06 -29.62,18.6 -49.33,25.22 -19.71,6.68 -42.51,10.05 -68.14,10.05 -58.92,0 -104.53,-16.67 -137.12,-50.16 -32.59,-33.55 -49.06,-79.1 -49.06,-136.42 0,-27.08 4.14,-52.16 12.27,-75.31 7.92,-23.22 19.64,-42.93 35.21,-59.53 15.36,-16.61 34.24,-29.22 56.91,-38.04 22.46,-8.82 47.47,-13.23 75.04,-13.23 35.69,0 66.35,7.58 91.98,22.81 25.49,14.88 44.92,34.45 57.46,58.36 12.75,23.98 19.09,48.23 19.09,73.17 0,22.88 -6.62,37.76 -19.77,44.65 -13.17,6.82 -31.7,10.2 -55.61,10.2zm-179.01 -52.02l0 0 165.85 0c-2.21,-31.21 -10.47,-54.64 -25.15,-70.08 -14.74,-15.57 -33.83,-23.28 -57.88,-23.28 -22.8,0 -41.54,7.78 -56.15,23.63 -14.61,15.71 -23.56,38.93 -26.67,69.73z"/>
      <path class="fil2" d="M-25256.61 29645.37l-178.94 0c0.2,20.74 4.41,39.21 12.47,54.98 8.2,15.78 19.02,27.77 32.52,35.9 13.5,7.99 28.39,11.99 44.86,11.99 10.81,0 20.87,-1.17 29.76,-3.93 9.16,-2.48 17.85,-6.54 26.46,-12.06 8.54,-5.37 16.26,-11.23 23.43,-17.64 7.02,-6.13 16.4,-14.67 27.83,-25.35 4.76,-4 11.51,-6.13 20.05,-6.13 9.44,0 17.02,2.62 22.95,7.85 5.79,5.17 8.47,12.33 8.47,21.78 0,8.26 -3.1,17.91 -9.65,28.87 -6.26,11.23 -16.05,21.77 -29.28,31.97 -13.09,10.06 -29.63,18.6 -49.26,25.22 -19.64,6.68 -42.58,10.05 -68.21,10.05 -58.85,0 -104.39,-16.67 -137.12,-50.16 -32.59,-33.55 -48.99,-79.1 -48.99,-136.42 0,-27.08 4.07,-52.16 12.26,-75.31 8,-23.22 19.71,-42.93 35.14,-59.53 15.37,-16.61 34.32,-29.22 56.92,-38.04 22.53,-8.82 47.68,-13.23 75.1,-13.23 35.62,0 66.28,7.58 92.19,22.81 25.43,14.88 44.65,34.45 57.19,58.36 12.68,23.98 19.22,48.23 19.22,73.17 0,22.88 -6.75,37.76 -19.77,44.65 -13.23,6.82 -31.76,10.2 -55.6,10.2zm-178.94 -52.02l0 0 165.84 0c-2.27,-31.21 -10.74,-54.64 -25.21,-70.08 -14.89,-15.57 -33.97,-23.28 -57.95,-23.28 -22.81,0 -41.48,7.78 -56.23,23.63 -14.53,15.71 -23.49,38.93 -26.45,69.73z"/>
      <path class="fil2" d="M-25056.25 29488.34l0 10.96c17.16,-21.22 35.07,-36.79 53.82,-46.72 18.25,-10.06 39.41,-15.09 62.83,-15.09 28.04,0 54.16,7.38 77.86,21.78 23.7,14.6 42.31,35.82 56.09,63.73 13.71,28.04 20.67,61.05 20.67,99.29 0,28.04 -4,54.02 -11.85,77.65 -7.93,23.56 -18.95,43.27 -32.8,59.25 -13.85,15.85 -30.18,28.26 -48.99,36.87 -19.15,8.54 -39.2,12.81 -60.98,12.81 -26.04,0 -48.09,-5.23 -65.8,-15.78 -17.71,-10.26 -34.65,-25.83 -50.85,-46.02l0 137.32c0,40.03 -14.67,60.29 -43.89,60.29 -17.29,0 -28.53,-5.17 -34.24,-15.5 -5.38,-10.55 -8.27,-25.5 -8.27,-45.55l0 -394.87c0,-17.44 3.79,-30.32 11.3,-39.07 7.58,-8.41 18.05,-12.82 31.21,-12.82 13.02,0 23.5,4.41 31.63,13.16 8.27,8.96 12.26,21.57 12.26,38.31zm179.36 132.92l0 0c0,-24.19 -3.73,-44.93 -11.1,-62.22 -7.37,-17.37 -17.57,-30.6 -30.52,-39.76 -12.96,-9.3 -27.63,-13.99 -43.48,-13.99 -25.22,0 -46.51,9.99 -63.8,29.77 -17.37,19.98 -26.12,49.19 -26.12,87.92 0,36.24 8.62,64.7 25.98,84.88 17.16,20.26 38.31,30.32 63.94,30.32 15.09,0 29.28,-4.48 42.24,-13.16 13.09,-8.89 23.42,-22.12 31.14,-39.76 7.79,-17.7 11.72,-39.06 11.72,-64z"/>
      <path class="fil2" d="M-24692.86 29394.29c-12.81,0 -23.63,-4.07 -32.59,-11.85 -9.16,-7.85 -13.64,-18.74 -13.64,-33 0,-13.03 4.62,-23.64 13.98,-32.11 9.24,-8.27 19.99,-12.54 32.25,-12.54 11.99,0 22.39,3.72 31.49,11.23 9.16,7.72 13.78,18.88 13.78,33.42 0,14.05 -4.48,25.08 -13.3,33 -8.96,7.78 -19.57,11.85 -31.97,11.85zm45.27 94.47l0 0 0 264.65c0,18.19 -4.34,32.03 -13.02,41.34 -8.82,9.51 -19.78,14.12 -33.21,14.12 -13.44,0 -24.19,-4.68 -32.73,-14.33 -8.27,-9.71 -12.54,-23.42 -12.54,-41.13l0 -262.04c0,-17.98 4.27,-31.55 12.54,-40.72 8.54,-9.3 19.29,-13.78 32.73,-13.78 13.43,0 24.39,4.48 33.21,13.78 8.68,9.17 13.02,21.98 13.02,38.11z"/>
      <path class="fil2" d="M-24352.69 29767.12l-80.55 -132.84 -49.68 46.85 0 72.9c0,17.57 -4.68,31.07 -13.98,40.51 -9.1,9.65 -19.99,14.33 -31.97,14.33 -14.06,0 -25.22,-4.61 -33.21,-14.12 -8,-9.31 -12.13,-23.15 -12.13,-41.41l0 -390.26c0,-20.26 4.07,-35.69 11.71,-46.37 7.86,-10.75 19.23,-15.92 33.63,-15.92 14.05,0 25.15,4.82 33.48,14.47 8.27,9.58 12.47,23.77 12.47,42.44l0 222.01 102.87 -108.04c12.75,-13.3 22.33,-22.6 29.15,-27.5 6.69,-4.89 14.81,-7.3 24.32,-7.3 11.51,0 20.95,3.65 28.81,10.89 7.44,7.23 11.29,16.4 11.29,27.28 0,13.37 -12.47,31.35 -37.2,53.68l-48.58 44.51 93.78 147.59c6.82,11.02 11.99,19.15 14.95,24.87 2.96,5.65 4.61,11.3 4.61,16.33 0,14.54 -4.06,25.91 -12.05,34.38 -7.93,8.34 -18.47,12.47 -31.21,12.47 -11.17,0 -19.92,-2.82 -25.91,-9.02 -6,-6.07 -14.33,-17.02 -24.6,-32.73z"/>
      <path class="fil2" d="M-24153.84 29808.87c-13.85,0 -25.7,-4.41 -35.76,-13.43 -10.06,-8.75 -15.16,-21.36 -15.16,-37.55 0,-13.58 4.9,-25.36 14.47,-35.07 9.72,-9.86 21.43,-14.82 35.56,-14.82 14.05,0 25.97,4.96 36.1,14.54 9.85,9.71 14.88,21.63 14.88,35.35 0,15.98 -5.03,28.52 -14.88,37.41 -10.13,9.16 -21.84,13.57 -35.21,13.57z"/>
      <path class="fil2" d="M-23698.81 29695.67c0,11.3 -3.45,23.56 -10.27,36.45 -6.75,13.09 -17.22,25.35 -31.28,37.07 -13.92,11.71 -31.42,21.22 -52.71,28.31 -21.22,7.17 -45.2,10.82 -71.66,10.82 -56.63,0 -100.8,-16.54 -132.56,-49.4 -31.56,-33.01 -47.48,-77.24 -47.48,-132.64 0,-37.69 7.24,-70.76 21.84,-99.63 14.4,-28.73 35.42,-51.06 62.84,-66.83 27.49,-15.78 60.57,-23.64 98.6,-23.64 23.77,0 45.41,3.45 65.32,10.41 19.78,6.89 36.45,15.92 50.3,26.8 13.64,11.09 24.18,22.67 31.35,35 7.3,12.4 10.89,23.98 10.89,34.8 0,10.89 -4,20.18 -12.13,27.77 -8.27,7.57 -18.19,11.43 -29.56,11.43 -7.72,0 -14.06,-2 -19.09,-5.85 -5.09,-3.93 -10.75,-10.2 -16.88,-19.09 -11.23,-16.88 -22.8,-29.7 -35.14,-38.1 -12.12,-8.55 -27.56,-12.75 -46.37,-12.75 -26.87,0 -48.78,10.47 -65.39,31.63 -16.46,21.01 -24.8,50.09 -24.8,86.61 0,17.22 2.2,33.14 6.48,47.54 4.13,14.33 10.26,26.66 18.32,36.79 8.13,10.13 17.78,17.85 29.15,23.08 11.44,5.45 24.05,8 37.55,8 18.4,0 34.11,-4.28 47.13,-12.75 13.3,-8.48 24.8,-21.43 34.79,-38.86 5.59,-10.27 11.58,-18.26 17.99,-24.12 6.41,-5.78 14.4,-8.82 23.84,-8.82 11.16,0 20.46,4.35 27.7,12.82 7.44,8.47 11.23,17.57 11.23,27.15z"/>
      <path class="fil2" d="M-23304.07 29622.98c0,27.14 -4.27,52.36 -12.54,75.45 -8.68,23.01 -20.88,42.78 -37,59.18 -16.06,16.54 -35.35,29.21 -57.61,38.1 -22.52,8.75 -47.61,13.23 -75.44,13.23 -27.7,0 -52.64,-4.48 -74.83,-13.5 -21.98,-8.75 -41.27,-21.64 -57.33,-38.17 -16.26,-16.81 -28.52,-36.45 -37.14,-59.12 -8.06,-22.74 -12.33,-47.82 -12.33,-75.17 0,-27.77 4.34,-53.13 12.61,-76.14 8.54,-23.08 20.81,-42.79 36.66,-59.05 15.91,-16.26 35.07,-28.8 57.53,-37.76 22.74,-8.75 47.61,-13.16 74.83,-13.16 27.7,0 52.85,4.41 75.44,13.44 22.54,8.89 41.76,21.7 58.02,38.1 16.12,16.74 28.32,36.31 36.66,58.98 8.26,22.95 12.47,47.96 12.47,75.59zm-91.85 0l0 0c0,-37.35 -8.27,-66.36 -24.6,-87.1 -16.33,-21.01 -38.44,-31.34 -66.14,-31.34 -17.92,0 -33.69,4.68 -47.34,13.91 -13.64,9.23 -24.05,22.88 -31.42,41.07 -7.37,18.12 -11.09,39.27 -11.09,63.46 0,23.9 3.58,44.71 10.89,62.56 7.37,17.98 17.7,31.62 31.28,41.13 13.57,9.38 29.42,14.27 47.68,14.27 27.7,0 49.81,-10.48 66.14,-31.49 16.33,-20.81 24.6,-49.75 24.6,-86.47z"/>
      <path class="fil2" d="M-22955.08 29629.66l0 121.61c0,19.29 -4.28,33.56 -13.03,43.27 -8.82,9.65 -20.19,14.4 -34.52,14.4 -13.85,0 -25.14,-4.75 -33.55,-14.4 -8.68,-9.71 -13.09,-23.98 -13.09,-43.27l0 -145.73c0,-23.08 -0.76,-40.99 -2.27,-53.81 -1.59,-12.47 -5.93,-23.08 -12.75,-31.14 -6.96,-8.27 -17.99,-12.4 -32.87,-12.4 -29.97,0 -49.61,10.26 -59.12,31.07 -9.44,20.33 -14.33,49.89 -14.33,88.47l0 123.54c0,18.95 -4.34,33.35 -12.75,43.14 -8.82,9.64 -20.05,14.53 -34.03,14.53 -13.99,0 -25.29,-4.89 -34.11,-14.53 -8.89,-9.79 -13.3,-24.19 -13.3,-43.14l0 -261.76c0,-17.22 3.93,-30.31 11.85,-39.2 8.07,-9.03 18.54,-13.44 31.35,-13.44 12.61,0 23.02,4.34 31.49,12.54 8.34,8.41 12.47,19.98 12.47,34.73l0 8.61c15.99,-18.88 33.01,-32.87 50.99,-41.61 18.19,-9.17 38.17,-13.65 60.43,-13.65 22.94,0 42.72,4.62 59.19,13.78 16.53,9.17 30.1,23.08 40.92,41.48 15.51,-18.6 32.04,-32.52 49.75,-41.61 17.64,-9.1 37.14,-13.65 58.63,-13.65 24.88,0 46.58,5.03 64.7,14.82 17.99,9.78 31.49,23.97 40.45,42.16 7.79,16.68 11.64,42.65 11.64,78.21l0 178.59c0,19.29 -4.27,33.56 -12.95,43.27 -8.68,9.65 -20.26,14.4 -34.52,14.4 -13.92,0 -25.22,-4.89 -34.04,-14.53 -8.82,-9.79 -13.3,-24.19 -13.3,-43.14l0 -153.86c0,-19.7 -0.82,-35.41 -2.41,-47.19 -1.65,-11.92 -6.27,-21.91 -13.5,-29.91 -7.51,-7.99 -18.74,-12.12 -33.63,-12.12 -12.06,0 -23.49,3.79 -34.38,10.88 -10.82,6.96 -19.29,16.81 -25.42,28.67 -6.55,15.43 -9.99,42.78 -9.99,81.92z"/>
     </g>
     <g>
      <path class="fil2" d="M-27213.28 29600.79c-0.07,-0.14 -0.07,-0.35 -0.07,-0.62 0,0.27 0,0.48 0.07,0.62z"/>
      <path class="fil2" d="M-27208.66 29630.07c0.07,0 0.07,0 0.07,0 -1.73,-8.34 -3.11,-16.6 -4.14,-24.8 1.03,8.27 2.41,16.54 4.07,24.8z"/>
      <path class="fil2" d="M-27178.38 29714.96c-0.21,-0.35 -0.38,-0.76 -0.59,-1.17 0.21,0.41 0.38,0.82 0.59,1.17z"/>
      <path class="fil2" d="M-27181.28 29709.31c-0.79,-1.59 -1.55,-3.17 -2.31,-4.75 0.76,1.65 1.52,3.16 2.31,4.75z"/>
      <path class="fil2" d="M-27200.16 29662.73c4.48,14.13 9.89,27.84 16.13,40.86 -6.38,-13.3 -11.65,-27.01 -16.02,-40.86 0,0 -0.07,0 -0.11,0z"/>
      <path class="fil2" d="M-26859.2 29250.28c17.7,0 30.73,1.38 45.68,3.93l4.27 -26.94c0,0 -41.34,-12.68 -95.64,-8.27l-4.27 -14.6c16.88,-3.59 29.56,-18.61 29.56,-36.52 0,-20.53 -16.74,-37.14 -37.27,-37.14 -20.6,0 -37.27,16.61 -37.27,37.14 0,17.91 12.68,32.93 29.48,36.52l4.76 16.33c-57.67,7.92 -103.56,30.38 -103.56,30.38l8.14 24.87c34.86,-11.57 65.11,-18.67 92.55,-21.63 26.88,-2.82 47.1,-4.07 63.57,-4.07z"/>
      <path class="fil2" d="M-27179.07 29386.37l0.2 -0.28c1.35,-1.72 2.66,-3.38 4,-5.03l-11.06 -7.92 -17.19 -12.61c-0.96,1.38 -28.04,26.25 -49.43,72.28 -0.9,-1.45 -1.97,-2.9 -3.18,-4.21 -6.4,-7.02 -15.36,-10.61 -26.73,-10.4 -0.14,0 -0.34,0 -0.55,0 -7.03,0 -11.85,-2.34 -15.02,-5.17 3.14,-4 5.03,-9.03 5.03,-14.61 0,-12.95 -10.58,-23.56 -23.63,-23.56 -12.99,0 -23.57,10.61 -23.57,23.56 0,13.09 10.58,23.64 23.57,23.64 2.06,0 3.99,-0.35 5.92,-0.76 5.79,6.48 14.99,12.06 28.46,11.78 6.96,-0.07 12.06,1.73 15.43,5.51 3.93,4.28 5.24,10.41 5.65,15.1 -0.03,0.06 -0.03,0.13 -0.1,0.13 -15.37,41.96 -10.99,94.19 -10.99,94.19l37.31 1.51c0.76,-19.01 3.48,-52.29 13.13,-78.68 18.53,-51.12 41.82,-83.1 42.75,-84.47z"/>
      <path class="fil2" d="M-26534.68 29281.43c-12.95,0 -23.56,10.54 -23.56,23.63 0,2 0.27,3.93 0.82,5.79 -6.47,5.86 -12.12,15.09 -11.91,28.6 0.14,6.95 -1.66,11.98 -5.45,15.43 -2.96,2.62 -6.75,4.06 -10.4,4.96 -27.77,-38.93 -61.94,-62.63 -61.94,-62.63l-26.81 28.66c20.26,18.4 40.93,41.48 60.98,70.21 13.92,19.91 28.18,45.55 40.1,71.11l36.11 -17.16c0,0 -16.47,-40.79 -39.69,-77.31 4,-1.44 8.06,-3.65 11.65,-6.82 7.09,-6.34 10.54,-15.36 10.33,-26.73 -0.07,-7.31 2.34,-12.27 5.24,-15.57 4.06,3.1 9.09,5.03 14.53,5.03 13.1,0 23.64,-10.54 23.64,-23.57 0,-13.09 -10.54,-23.63 -23.64,-23.63z"/>
      <path class="fil2" d="M-26628.38 29606.1c-49.75,24.18 -131.54,56.22 -239.23,71.24 -42.3,5.86 -83.22,7.99 -120.95,7.99 -49.06,0 -92.43,-3.65 -125.67,-7.85 -37.97,-4.76 -67.63,-10.61 -85.82,-14.75 4.37,13.85 9.64,27.56 16.02,40.86 0.1,0.35 0.27,0.76 0.44,0.97 0.76,1.58 1.52,3.16 2.31,4.75 0.76,1.52 1.52,3.03 2.31,4.48 0.21,0.41 0.38,0.82 0.59,1.17 10.68,20.12 23.53,38.59 38.14,54.64 50.78,55.53 102.52,64.35 103,64.42l0.83 0.07 0.76 0.28c0.48,0.2 46.37,15.02 116.09,15.02 68.62,0 136.01,-13.85 200.16,-41.2 47.54,-24.33 92.53,-61.26 114.79,-94.19 17.22,-25.5 29.7,-52.64 37.07,-80.9 3.93,-15.02 7.03,-39.06 5.16,-64.42 -13.98,9.44 -36.1,22.81 -66,37.42z"/>
      <path class="fil2" d="M-27163.12 29398.15c-1.45,2.14 -23.01,32.66 -40.03,79.51 -12.75,35.07 -12.2,86.2 -12.2,86.75l0 0.14c0,11.99 0.69,23.84 2,35.62 0,0.27 0,0.48 0.07,0.62 0.14,1.51 0.41,2.96 0.55,4.48 1.03,8.2 2.41,16.46 4.17,24.8 24.7,6.27 172.08,40.66 336.82,17.71 103.28,-14.4 181.69,-44.92 229.3,-68 39.55,-19.16 64.98,-36.52 74.76,-43.69 -9.78,-36.24 -36.73,-93.15 -61.46,-128.64 -70.76,-101.08 -147.04,-126.99 -186.17,-133.46 -14.95,-2.42 -26.95,-3.86 -43.89,-3.86 -15.78,0 -35.35,1.31 -61.46,4.07 -26.25,2.68 -55.46,9.57 -89.36,21.01 -47.54,15.91 -90.54,40.86 -124.4,72.21l-1.14 1.1c-5.03,4.62 -15.5,14.33 -27.56,29.63zm432.83 -23.5l0 0c33.9,0 61.53,27.57 61.53,61.46 0,33.97 -27.63,61.53 -61.53,61.53 -33.9,0 -61.46,-27.56 -61.46,-61.53 0,-33.89 27.56,-61.46 61.46,-61.46zm-290.72 -2.48l0 0c54.92,0 99.38,44.51 99.38,99.43 0,54.85 -44.46,99.29 -99.38,99.29 -54.84,0 -99.32,-44.44 -99.32,-99.29 0,-54.92 44.48,-99.43 99.32,-99.43z"/>
     </g>
    </g>
   </g>
   <g>
    <path class="fil1 str0" d="M-33988.51 5720.67c0,1195.83 -969.42,2165.28 -2165.26,2165.28 -1195.84,0 -2165.27,-969.45 -2165.27,-2165.28 0,-1195.86 969.43,-2165.27 2165.27,-2165.27 1195.84,0 2165.26,969.41 2165.26,2165.27z"/>
    <g>
     <g>
      <polyline class="fil1 str0" points="-37219.34,5751.58 -36142.68,4674.95 -35046.65,5770.94 "/>
     </g>
     <line class="fil1 str0" x1="-36142.68" y1="4674.95" x2="-36142.68" y2= "6889.49" />
    </g>
   </g>
   <g>
    <path class="fil1 str0" d="M-27897.32 5720.67c0,1195.83 -969.42,2165.28 -2165.26,2165.28 -1195.85,0 -2165.28,-969.45 -2165.28,-2165.28 0,-1195.86 969.43,-2165.27 2165.28,-2165.27 1195.84,0 2165.26,969.41 2165.26,2165.27z"/>
    <g>
     <g>
      <polyline class="fil1 str0" points="-29990.92,4695.86 -28914.3,5772.52 -30010.28,6868.54 "/>
     </g>
     <line class="fil1 str0" x1="-28914.3" y1="5772.52" x2="-31128.84" y2= "5772.52" />
    </g>
   </g>
   <g>
    <path class="fil1 str0" d="M-15679.63 5720.67c0,1195.83 -969.41,2165.28 -2165.31,2165.28 -1195.83,0 -2165.21,-969.45 -2165.21,-2165.28 0,-1195.86 969.38,-2165.27 2165.21,-2165.27 1195.9,0 2165.31,969.41 2165.31,2165.27z"/>
    <g>
     <g>
      <polyline class="fil1 str0" points="-16696,5812.86 -17772.66,6889.45 -18868.68,5793.5 "/>
     </g>
     <line class="fil1 str0" x1="-17772.66" y1="6889.45" x2="-17772.66" y2= "4674.95" />
    </g>
   </g>
   <g>
    <path class="fil1 str0" d="M-33988.51 10863.03c0,1195.86 -969.42,2165.28 -2165.26,2165.28 -1195.84,0 -2165.27,-969.42 -2165.27,-2165.28 0,-1195.83 969.43,-2165.24 2165.27,-2165.24 1195.84,0 2165.26,969.41 2165.26,2165.24z"/>
    <g>
     <g>
      <g>
       <polyline class="fil1 str0" points="-35664.86,9608.15 -35039.38,10233.19 -35676.14,10869.47 "/>
      </g>
      <line class="fil1 str0" x1="-35083.9" y1="10229.99" x2="-37226.6" y2= "10229.99" />
     </g>
     <g>
      <g>
       <polyline class="fil1 str0" points="-36601.13,10741.21 -37226.6,11366.25 -36589.85,12002.53 "/>
      </g>
      <line class="fil1 str0" x1="-37182.09" y1="11363.05" x2="-35039.38" y2= "11363.05" />
     </g>
    </g>
   </g>
   <g>
    <path class="fil1 str0" d="M-15679.63 26245.47c0,1195.79 -969.41,2165.32 -2165.31,2165.32 -1195.83,0 -2165.21,-969.53 -2165.21,-2165.32 0,-1195.86 969.38,-2165.31 2165.21,-2165.31 1195.9,0 2165.31,969.45 2165.31,2165.31z"/>
    <g>
     <g>
      <g>
       <polyline class="fil1 str0" points="-17736.52,25319.91 -16724.01,26327.92 -17754.68,27354.04 "/>
      </g>
     </g>
     <g>
      <g>
       <polyline class="fil1 str0" points="-18822.45,25319.91 -17810,26327.92 -18840.68,27354.04 "/>
      </g>
     </g>
    </g>
   </g>
   <g>
    <path class="fil1 str0" d="M-21841.39 10863.03c0,1195.86 -969.41,2165.28 -2165.31,2165.28 -1195.79,0 -2165.21,-969.42 -2165.21,-2165.28 0,-1195.83 969.42,-2165.24 2165.21,-2165.24 1195.9,0 2165.31,969.41 2165.31,2165.24z"/>
    <g>
     <path class="fil1 str0" d="M-22897.2 11489.31c-182.05,388.95 -579.64,658.67 -1040.7,658.67 -633.1,0 -1146.53,-508.6 -1146.53,-1135.99 0,-627.38 513.43,-1135.85 1146.53,-1135.85 293.59,0 561.24,109.22 764.12,289.01"/>
     <g>
      <polyline class="fil1 str0" points="-23876.16,10433.39 -23176.53,10168.19 -23449.04,9462.66 "/>
     </g>
    </g>
   </g>
   <g>
    <path class="fil1 str0" d="M-27897.32 10863.03c0,1195.86 -969.42,2165.28 -2165.26,2165.28 -1195.85,0 -2165.28,-969.42 -2165.28,-2165.28 0,-1195.83 969.43,-2165.24 2165.28,-2165.24 1195.84,0 2165.26,969.41 2165.26,2165.24z"/>
    <g>
     <path class="fil1 str0" d="M-31115.18 11489.31c182.06,388.95 579.54,658.67 1040.71,658.67 633.21,0 1146.51,-508.6 1146.51,-1135.99 0,-627.38 -513.3,-1135.85 -1146.51,-1135.85 -293.61,0 -561.36,109.22 -764.17,289.01"/>
     <g>
      <polyline class="fil1 str0" points="-30136.31,10433.39 -30835.82,10168.19 -30563.43,9462.66 "/>
     </g>
    </g>
   </g>
   <g>
    <path class="fil1 str0" d="M-15679.63 10863.03c0,1195.86 -969.41,2165.28 -2165.31,2165.28 -1195.83,0 -2165.21,-969.42 -2165.21,-2165.28 0,-1195.83 969.38,-2165.24 2165.21,-2165.24 1195.9,0 2165.31,969.41 2165.31,2165.24z"/>
    <g>
     <path class="fil1 str0" d="M-16688.73 10952.43c0,598.07 -491.96,1082.89 -1098.71,1082.89 -443.9,0 -826.41,-259.55 -999.7,-633.07"/>
     <path class="fil1 str0" d="M-18828.79 10606.89c146.25,-428.61 557.31,-737.19 1041.35,-737.19 281.46,0 537.99,104.19 732.43,275.54"/>
     <g>
      <polyline class="fil1 str0" points="-18875.95,12002.05 -18805.85,11394.88 -18208.43,11468.78 "/>
     </g>
     <g>
      <polyline class="fil1 str0" points="-17593.2,10361.91 -17007.95,10147 -17235.92,9575.36 "/>
     </g>
    </g>
   </g>
   <g>
    <path class="fil1 str0" d="M-27897.32 16005.42c0,1195.85 -969.42,2165.3 -2165.26,2165.3 -1195.85,0 -2165.28,-969.45 -2165.28,-2165.3 0,-1195.86 969.43,-2165.28 2165.28,-2165.28 1195.84,0 2165.26,969.42 2165.26,2165.28z"/>
    <g>
     <polyline class="fil1 str0" points="-28927.96,15692.5 -28927.96,16815.25 -30738.75,16815.25 "/>
     <polyline class="fil1 str0" points="-31115.18,16324.01 -31115.18,15231.34 -29446.41,15231.34 "/>
     <g>
      <polyline class="fil1 str0" points="-29880.03,15731.16 -29385.35,15227.83 -29905.26,14731.46 "/>
     </g>
     <g>
      <line class="fil1 str0" x1="-30796.52" y1="16813.8" x2="-30276.61" y2= "17310" />
     </g>
     <g>
      <line class="fil1 str0" x1="-30301.95" y1="16310.51" x2="-30796.52" y2= "16813.8" />
     </g>
    </g>
   </g>
   <g>
    <path class="fil1 str0" d="M-21841.39 16005.42c0,1195.85 -969.41,2165.3 -2165.31,2165.3 -1195.79,0 -2165.21,-969.45 -2165.21,-2165.3 0,-1195.86 969.42,-2165.28 2165.21,-2165.28 1195.9,0 2165.31,969.42 2165.31,2165.28z"/>
    <g>
     <polyline class="fil1 str0" points="-22897.2,16218.93 -22897.2,17059.02 -25084.43,17059.02 -25084.43,15480.56 -23435.47,15480.56 "/>
     <g>
      <polyline class="fil1 str0" points="-23849.12,15978.65 -23354.58,15476.94 -23874.37,14982.43 "/>
     </g>
    </g>
   </g>
   <g>
    <path class="fil1 str0" d="M-15679.63 16005.42c0,1195.85 -969.41,2165.3 -2165.31,2165.3 -1195.83,0 -2165.21,-969.45 -2165.21,-2165.3 0,-1195.86 969.38,-2165.28 2165.21,-2165.28 1195.9,0 2165.31,969.42 2165.31,2165.28z"/>
    <g>
     <polyline class="fil1 str0" points="-18875.95,15992.5 -18875.95,14985.05 -16688.73,14985.05 -16688.73,16563.34 -18465.81,16563.34 "/>
     <g>
      <polyline class="fil1 str0" points="-18062.77,16060.34 -18557.28,16561.89 -18037.52,17056.4 "/>
     </g>
    </g>
   </g>
   <g>
    <path class="fil1 str0" d="M-15679.63 21183.11c0,1195.79 -969.41,2165.24 -2165.31,2165.24 -1195.83,0 -2165.21,-969.45 -2165.21,-2165.24 0,-1195.93 969.38,-2165.31 2165.21,-2165.31 1195.9,0 2165.31,969.38 2165.31,2165.31z"/>
    <g>
     <polyline class="fil1 str0" points="-16882.04,20002.55 -17954.87,20002.55 -17954.87,22182.33 "/>
     <g>
      <polyline class="fil1 str0" points="-18682.65,21736.19 -17947.19,22448.36 -17222.24,21699.81 "/>
     </g>
    </g>
   </g>
   <g>
    <path class="fil1 str0" d="M-21841.39 21183.11c0,1195.79 -969.41,2165.24 -2165.31,2165.24 -1195.79,0 -2165.21,-969.45 -2165.21,-2165.24 0,-1195.93 969.42,-2165.31 2165.21,-2165.31 1195.9,0 2165.31,969.38 2165.31,2165.31z"/>
    <g>
     <polyline class="fil1 str0" points="-24891.13,20002.55 -23818.29,20002.55 -23818.29,22182.33 "/>
     <g>
      <polyline class="fil1 str0" points="-23090.51,21736.19 -23825.97,22448.36 -24550.92,21699.81 "/>
     </g>
    </g>
   </g>
   <g>
    <path class="fil1 str0" d="M-21841.39 26245.47c0,1195.79 -969.41,2165.32 -2165.31,2165.32 -1195.79,0 -2165.21,-969.53 -2165.21,-2165.32 0,-1195.86 969.42,-2165.31 2165.21,-2165.31 1195.9,0 2165.31,969.45 2165.31,2165.31z"/>
    <g>
     <line class="fil1 str0" x1="-23255.7" y1="25393.57" x2="-23255.7" y2= "26772.61" />
     <path class="fil1 str0" d="M-23255.7 26772.61c0,392.6 -315.85,710.89 -705.56,710.89"/>
     <line class="fil1 str0" x1="-23961.26" y1="27483.5" x2="-24020.38" y2= "27483.5" />
     <path class="fil1 str0" d="M-24020.38 27483.5c-389.78,0 -705.55,-318.29 -705.55,-710.89"/>
     <line class="fil1 str0" x1="-24725.93" y1="26772.61" x2="-24725.93" y2= "25393.57" />
     <g>
      <polyline class="fil1 str0" points="-25142.2,25605.92 -24729.75,25190.45 -24309.83,25613.37 "/>
     </g>
     <g>
      <polyline class="fil1 str0" points="-23671.8,25605.92 -23259.39,25190.45 -22839.43,25613.37 "/>
     </g>
    </g>
   </g>
   <g>
    <path class="fil1 str0" d="M-27897.32 21183.11c0,1195.79 -969.42,2165.24 -2165.26,2165.24 -1195.85,0 -2165.28,-969.45 -2165.28,-2165.24 0,-1195.93 969.43,-2165.31 2165.28,-2165.31 1195.84,0 2165.26,969.38 2165.26,2165.31z"/>
    <g>
     <line class="fil1 str0" x1="-29147" y1="20221.1" x2="-29147" y2= "21689.27" />
     <path class="fil1 str0" d="M-29147 21689.27c0,417.96 -338.86,756.81 -756.78,756.81"/>
     <line class="fil1 str0" x1="-29903.78" y1="22446.08" x2="-29967.24" y2= "22446.08" />
     <path class="fil1 str0" d="M-29967.24 22446.08c-417.99,0 -756.78,-338.85 -756.78,-756.81"/>
     <polyline class="fil1 str0" points="-30724.02,21689.27 -30724.02,21333.59 -31342.52,21333.59 "/>
     <g>
      <polyline class="fil1 str0" points="-29593.34,20447.17 -29150.96,20004.82 -28700.61,20455.09 "/>
     </g>
    </g>
   </g>
   <g>
    <path class="fil1 str0" d="M-33988.51 16005.42c0,1195.85 -969.42,2165.3 -2165.26,2165.3 -1195.84,0 -2165.27,-969.45 -2165.27,-2165.3 0,-1195.86 969.43,-2165.28 2165.27,-2165.28 1195.84,0 2165.26,969.42 2165.26,2165.28z"/>
    <g>
     <polyline class="fil1 str0" points="-35532.27,15276.27 -35532.27,16909.4 -37180.05,16909.4 -37180.05,16188.69 "/>
     <g>
      <polyline class="fil1 str0" points="-35978.65,15574.4 -35536.27,15132.05 -35085.93,15582.33 "/>
     </g>
    </g>
   </g>
   <g>
    <path class="fil1 str0" d="M-33988.51 21183.11c0,1195.79 -969.42,2165.24 -2165.26,2165.24 -1195.84,0 -2165.27,-969.45 -2165.27,-2165.24 0,-1195.93 969.43,-2165.31 2165.27,-2165.31 1195.84,0 2165.26,969.38 2165.26,2165.31z"/>
    <g>
     <g>
      <polyline class="fil1 str0" points="-35645.36,20309.44 -36128.65,19826.23 -36620.61,20318.08 "/>
     </g>
     <g>
      <polyline class="fil1 str0" points="-35645.36,22141.43 -36128.65,22624.68 -36620.61,22132.79 "/>
     </g>
     <line class="fil1 str0" x1="-36132.98" y1="19968.48" x2="-36132.98" y2= "22325.44" />
    </g>
   </g>
   <g>
    <path class="fil1 str0" d="M-33988.51 26245.47c0,1195.79 -969.42,2165.32 -2165.26,2165.32 -1195.84,0 -2165.27,-969.53 -2165.27,-2165.32 0,-1195.86 969.43,-2165.31 2165.27,-2165.31 1195.84,0 2165.26,969.45 2165.26,2165.31z"/>
    <g>
     <g>
      <g>
       <polyline class="fil1 str0" points="-35758.27,25515.46 -36129.65,25137.53 -36507.75,25522.17 "/>
      </g>
      <g>
       <polyline class="fil1 str0" points="-35758.27,27158.53 -36129.65,27536.42 -36507.75,27151.81 "/>
      </g>
      <line class="fil1 str0" x1="-36133.01" y1="25248.77" x2="-36133.01" y2= "27302.57" />
     </g>
     <g>
      <g>
       <polyline class="fil1 str0" points="-35325.48,26718.18 -34954.15,26340.45 -35332.2,25955.84 "/>
      </g>
      <g>
       <polyline class="fil1 str0" points="-36940.51,26718.18 -37311.84,26340.45 -36933.79,25955.84 "/>
      </g>
      <line class="fil1 str0" x1="-35063.38" y1="26337.01" x2="-37081.96" y2= "26337.01" />
     </g>
    </g>
   </g>
   <g>
    <path class="fil1 str0" d="M-27897.32 26245.47c0,1195.79 -969.42,2165.32 -2165.26,2165.32 -1195.85,0 -2165.28,-969.53 -2165.28,-2165.32 0,-1195.86 969.43,-2165.31 2165.28,-2165.31 1195.84,0 2165.26,969.45 2165.26,2165.31z"/>
    <g>
     <g>
      <g>
       <polyline class="fil1 str0" points="-28996.79,26141.4 -28996.84,25457.99 -29692.51,25457.92 "/>
      </g>
      <line class="fil1 str0" x1="-29100.49" y1="25555.52" x2="-30767.1" y2= "27222.12" />
     </g>
     <g>
      <g>
       <polyline class="fil1 str0" points="-30362.85,25451.83 -31046.26,25451.86 -31046.33,26147.53 "/>
      </g>
      <line class="fil1 str0" x1="-30948.73" y1="25555.52" x2="-29282.13" y2= "27222.12" />
     </g>
    </g>
   </g>
  </g>
 </g>
</svg>
